<?xml version="1.0" standalone="no"?>
<!DOCTYPE svg PUBLIC "-//W3C//DTD SVG 20010904//EN"
 "http://www.w3.org/TR/2001/REC-SVG-20010904/DTD/svg10.dtd">
<svg version="1.0" xmlns="http://www.w3.org/2000/svg"
 width="256.000000pt" height="256.000000pt" viewBox="0 0 256.000000 256.000000"
 preserveAspectRatio="xMidYMid meet">
<metadata>
Created by potrace 1.14, written by Peter Selinger 2001-2017
</metadata>
<g transform="translate(0.000000,256.000000) scale(0.100000,-0.100000)"
fill="#000000" stroke="none">
<path d="M1170 2554 c-323 -40 -557 -146 -769 -349 -472 -451 -532 -1168 -141
-1695 69 -93 209 -225 311 -293 152 -101 326 -170 503 -199 91 -15 321 -15
412 0 444 74 819 378 983 797 62 157 84 281 84 465 0 184 -22 308 -84 465 -70
179 -164 319 -306 456 -185 178 -423 299 -666 339 -71 12 -275 20 -327 14z
m140 -126 c0 -7 36 -82 79 -168 157 -307 228 -515 311 -905 62 -295 84 -425
95 -560 10 -126 15 -153 30 -151 8 0 14 -3 15 -9 1 -15 -166 -25 -448 -28
l-254 -2 -38 -37 c-45 -42 -123 -74 -212 -86 l-63 -9 45 -6 c25 -3 180 -13
345 -22 165 -9 347 -20 405 -25 58 -6 110 -10 117 -10 7 0 25 -13 41 -28 23
-23 51 -33 136 -52 58 -13 106 -27 106 -32 0 -14 -42 -9 -150 19 -144 36 -324
38 -485 4 -135 -29 -228 -25 -360 14 -96 29 -151 30 -345 7 -88 -11 -242 -2
-247 14 -3 7 35 9 127 6 71 -3 130 -2 130 2 0 4 -9 25 -21 47 -21 42 -20 69 3
69 8 0 31 52 57 133 143 436 385 1096 451 1227 17 34 32 87 39 140 20 141 62
413 68 438 5 23 23 31 23 10z"/>
</g>
</svg>
